<mxfile host="app.diagrams.net" agent="Mozilla/5.0 (Windows NT 10.0; Win64; x64) AppleWebKit/537.36 (KHTML, like Gecko) Chrome/131.0.0.0 Safari/537.36" version="25.0.3">
  <diagram name="Страница — 1" id="oXNdwfTjomyPxHrFvBlu">
    <mxGraphModel dx="704" dy="973" grid="1" gridSize="10" guides="1" tooltips="1" connect="1" arrows="1" fold="1" page="1" pageScale="1" pageWidth="827" pageHeight="1169" background="none" math="0" shadow="0">
      <root>
        <mxCell id="0" />
        <mxCell id="1" parent="0" />
        <mxCell id="ysVdarNlDVqx9SCfsDqO-1" value="начало" style="ellipse;whiteSpace=wrap;html=1;" vertex="1" parent="1">
          <mxGeometry x="340" width="120" height="80" as="geometry" />
        </mxCell>
        <mxCell id="ysVdarNlDVqx9SCfsDqO-2" value="" style="endArrow=none;dashed=1;html=1;dashPattern=1 3;strokeWidth=2;rounded=0;" edge="1" parent="1">
          <mxGeometry width="50" height="50" relative="1" as="geometry">
            <mxPoint x="460" y="40" as="sourcePoint" />
            <mxPoint x="600" y="40" as="targetPoint" />
          </mxGeometry>
        </mxCell>
        <mxCell id="ysVdarNlDVqx9SCfsDqO-3" value="#include &amp;lt;iostream&amp;gt;&lt;div&gt;#include &amp;lt;cmath&amp;gt;&lt;/div&gt;&lt;div&gt;using namespase std;&lt;/div&gt;" style="rounded=0;whiteSpace=wrap;html=1;align=left;" vertex="1" parent="1">
          <mxGeometry x="600" y="10" width="130" height="80" as="geometry" />
        </mxCell>
        <mxCell id="ysVdarNlDVqx9SCfsDqO-4" value="int main()" style="shape=process;whiteSpace=wrap;html=1;backgroundOutline=1;" vertex="1" parent="1">
          <mxGeometry x="340" y="120" width="120" height="60" as="geometry" />
        </mxCell>
        <mxCell id="ysVdarNlDVqx9SCfsDqO-5" value="setlocale(LC_ALL,&quot;ru&quot;);" style="whiteSpace=wrap;html=1;" vertex="1" parent="1">
          <mxGeometry x="330" y="220" width="140" height="60" as="geometry" />
        </mxCell>
        <mxCell id="ysVdarNlDVqx9SCfsDqO-6" value="" style="endArrow=classic;html=1;rounded=0;entryX=0.5;entryY=0;entryDx=0;entryDy=0;exitX=0.5;exitY=1;exitDx=0;exitDy=0;" edge="1" parent="1" source="ysVdarNlDVqx9SCfsDqO-1" target="ysVdarNlDVqx9SCfsDqO-4">
          <mxGeometry width="50" height="50" relative="1" as="geometry">
            <mxPoint x="420" y="410" as="sourcePoint" />
            <mxPoint x="470" y="360" as="targetPoint" />
          </mxGeometry>
        </mxCell>
        <mxCell id="ysVdarNlDVqx9SCfsDqO-7" value="" style="endArrow=classic;html=1;rounded=0;exitX=0.5;exitY=1;exitDx=0;exitDy=0;entryX=0.5;entryY=0;entryDx=0;entryDy=0;" edge="1" parent="1" source="ysVdarNlDVqx9SCfsDqO-4" target="ysVdarNlDVqx9SCfsDqO-5">
          <mxGeometry width="50" height="50" relative="1" as="geometry">
            <mxPoint x="420" y="410" as="sourcePoint" />
            <mxPoint x="400" y="217" as="targetPoint" />
          </mxGeometry>
        </mxCell>
        <mxCell id="ysVdarNlDVqx9SCfsDqO-8" value="{" style="text;html=1;align=center;verticalAlign=middle;resizable=0;points=[];autosize=1;strokeColor=none;fillColor=none;" vertex="1" parent="1">
          <mxGeometry x="370" y="188" width="30" height="30" as="geometry" />
        </mxCell>
        <mxCell id="ysVdarNlDVqx9SCfsDqO-9" value="float a,b,c;" style="rounded=0;whiteSpace=wrap;html=1;" vertex="1" parent="1">
          <mxGeometry x="340" y="310" width="120" height="40" as="geometry" />
        </mxCell>
        <mxCell id="ysVdarNlDVqx9SCfsDqO-10" value="float fA,fB,fC;" style="whiteSpace=wrap;html=1;" vertex="1" parent="1">
          <mxGeometry x="340" y="380" width="120" height="30" as="geometry" />
        </mxCell>
        <mxCell id="ysVdarNlDVqx9SCfsDqO-11" value="" style="endArrow=classic;html=1;rounded=0;entryX=0.5;entryY=0;entryDx=0;entryDy=0;exitX=0.5;exitY=1;exitDx=0;exitDy=0;" edge="1" parent="1" source="ysVdarNlDVqx9SCfsDqO-5" target="ysVdarNlDVqx9SCfsDqO-9">
          <mxGeometry width="50" height="50" relative="1" as="geometry">
            <mxPoint x="420" y="410" as="sourcePoint" />
            <mxPoint x="470" y="360" as="targetPoint" />
          </mxGeometry>
        </mxCell>
        <mxCell id="ysVdarNlDVqx9SCfsDqO-12" value="" style="endArrow=classic;html=1;rounded=0;entryX=0.5;entryY=0;entryDx=0;entryDy=0;exitX=0.5;exitY=1;exitDx=0;exitDy=0;" edge="1" parent="1" source="ysVdarNlDVqx9SCfsDqO-9" target="ysVdarNlDVqx9SCfsDqO-10">
          <mxGeometry width="50" height="50" relative="1" as="geometry">
            <mxPoint x="420" y="410" as="sourcePoint" />
            <mxPoint x="470" y="360" as="targetPoint" />
          </mxGeometry>
        </mxCell>
        <mxCell id="ysVdarNlDVqx9SCfsDqO-13" value="a=2;" style="whiteSpace=wrap;html=1;" vertex="1" parent="1">
          <mxGeometry x="360" y="430" width="80" height="20" as="geometry" />
        </mxCell>
        <mxCell id="ysVdarNlDVqx9SCfsDqO-14" value="b=3;" style="whiteSpace=wrap;html=1;" vertex="1" parent="1">
          <mxGeometry x="360" y="470" width="80" height="20" as="geometry" />
        </mxCell>
        <mxCell id="ysVdarNlDVqx9SCfsDqO-15" value="" style="endArrow=classic;html=1;rounded=0;entryX=0.5;entryY=0;entryDx=0;entryDy=0;exitX=0.5;exitY=1;exitDx=0;exitDy=0;" edge="1" parent="1" source="ysVdarNlDVqx9SCfsDqO-10" target="ysVdarNlDVqx9SCfsDqO-13">
          <mxGeometry width="50" height="50" relative="1" as="geometry">
            <mxPoint x="200" y="480" as="sourcePoint" />
            <mxPoint x="250" y="430" as="targetPoint" />
          </mxGeometry>
        </mxCell>
        <mxCell id="ysVdarNlDVqx9SCfsDqO-16" value="" style="endArrow=classic;html=1;rounded=0;entryX=0.5;entryY=0;entryDx=0;entryDy=0;exitX=0.5;exitY=1;exitDx=0;exitDy=0;" edge="1" parent="1" source="ysVdarNlDVqx9SCfsDqO-13" target="ysVdarNlDVqx9SCfsDqO-14">
          <mxGeometry width="50" height="50" relative="1" as="geometry">
            <mxPoint x="420" y="410" as="sourcePoint" />
            <mxPoint x="470" y="360" as="targetPoint" />
          </mxGeometry>
        </mxCell>
        <mxCell id="ysVdarNlDVqx9SCfsDqO-17" value="while (b-a &amp;gt; eps)" style="rhombus;whiteSpace=wrap;html=1;" vertex="1" parent="1">
          <mxGeometry x="332.5" y="520" width="135" height="80" as="geometry" />
        </mxCell>
        <mxCell id="ysVdarNlDVqx9SCfsDqO-18" value="" style="endArrow=classic;html=1;rounded=0;entryX=0.5;entryY=0;entryDx=0;entryDy=0;" edge="1" parent="1" target="ysVdarNlDVqx9SCfsDqO-17">
          <mxGeometry width="50" height="50" relative="1" as="geometry">
            <mxPoint x="400" y="490" as="sourcePoint" />
            <mxPoint x="470" y="360" as="targetPoint" />
          </mxGeometry>
        </mxCell>
        <mxCell id="ysVdarNlDVqx9SCfsDqO-19" value="{" style="text;html=1;align=center;verticalAlign=middle;resizable=0;points=[];autosize=1;strokeColor=none;fillColor=none;" vertex="1" parent="1">
          <mxGeometry x="370" y="490" width="30" height="30" as="geometry" />
        </mxCell>
        <mxCell id="ysVdarNlDVqx9SCfsDqO-20" value="c=(a-b)/2;" style="whiteSpace=wrap;html=1;" vertex="1" parent="1">
          <mxGeometry x="340" y="630" width="120" height="40" as="geometry" />
        </mxCell>
        <mxCell id="ysVdarNlDVqx9SCfsDqO-21" value="" style="endArrow=classic;html=1;rounded=0;entryX=0.5;entryY=0;entryDx=0;entryDy=0;exitX=0.5;exitY=1;exitDx=0;exitDy=0;" edge="1" parent="1" source="ysVdarNlDVqx9SCfsDqO-17" target="ysVdarNlDVqx9SCfsDqO-20">
          <mxGeometry width="50" height="50" relative="1" as="geometry">
            <mxPoint x="420" y="410" as="sourcePoint" />
            <mxPoint x="470" y="360" as="targetPoint" />
          </mxGeometry>
        </mxCell>
        <mxCell id="ysVdarNlDVqx9SCfsDqO-22" value="fA = 3*sin(sqrt(a)) + 0.35*a - 3.8;" style="whiteSpace=wrap;html=1;" vertex="1" parent="1">
          <mxGeometry x="295" y="710" width="210" height="40" as="geometry" />
        </mxCell>
        <mxCell id="ysVdarNlDVqx9SCfsDqO-23" value="fB = 3 * sin(sqrt(b)) + 0.35 * b - 3.8;" style="whiteSpace=wrap;html=1;" vertex="1" parent="1">
          <mxGeometry x="292.5" y="780" width="215" height="40" as="geometry" />
        </mxCell>
        <mxCell id="ysVdarNlDVqx9SCfsDqO-24" value="fC = 3 * sin(sqrt(c)) + 0.35 * c - 3.8;" style="whiteSpace=wrap;html=1;" vertex="1" parent="1">
          <mxGeometry x="292.5" y="850" width="215" height="40" as="geometry" />
        </mxCell>
        <mxCell id="ysVdarNlDVqx9SCfsDqO-25" value="" style="endArrow=classic;html=1;rounded=0;entryX=0.5;entryY=0;entryDx=0;entryDy=0;exitX=0.5;exitY=1;exitDx=0;exitDy=0;" edge="1" parent="1" source="ysVdarNlDVqx9SCfsDqO-20" target="ysVdarNlDVqx9SCfsDqO-22">
          <mxGeometry width="50" height="50" relative="1" as="geometry">
            <mxPoint x="420" y="660" as="sourcePoint" />
            <mxPoint x="470" y="610" as="targetPoint" />
          </mxGeometry>
        </mxCell>
        <mxCell id="ysVdarNlDVqx9SCfsDqO-26" value="" style="endArrow=classic;html=1;rounded=0;entryX=0.5;entryY=0;entryDx=0;entryDy=0;exitX=0.5;exitY=1;exitDx=0;exitDy=0;" edge="1" parent="1" source="ysVdarNlDVqx9SCfsDqO-22" target="ysVdarNlDVqx9SCfsDqO-23">
          <mxGeometry width="50" height="50" relative="1" as="geometry">
            <mxPoint x="420" y="660" as="sourcePoint" />
            <mxPoint x="470" y="610" as="targetPoint" />
          </mxGeometry>
        </mxCell>
        <mxCell id="ysVdarNlDVqx9SCfsDqO-27" value="" style="endArrow=classic;html=1;rounded=0;entryX=0.5;entryY=0;entryDx=0;entryDy=0;exitX=0.5;exitY=1;exitDx=0;exitDy=0;" edge="1" parent="1" source="ysVdarNlDVqx9SCfsDqO-23" target="ysVdarNlDVqx9SCfsDqO-24">
          <mxGeometry width="50" height="50" relative="1" as="geometry">
            <mxPoint x="420" y="660" as="sourcePoint" />
            <mxPoint x="470" y="610" as="targetPoint" />
          </mxGeometry>
        </mxCell>
        <mxCell id="ysVdarNlDVqx9SCfsDqO-28" value="if fC&amp;lt;0" style="rhombus;whiteSpace=wrap;html=1;" vertex="1" parent="1">
          <mxGeometry x="350" y="910" width="100" height="50" as="geometry" />
        </mxCell>
        <mxCell id="ysVdarNlDVqx9SCfsDqO-29" value="" style="endArrow=classic;html=1;rounded=0;entryX=0.5;entryY=0;entryDx=0;entryDy=0;exitX=0.5;exitY=1;exitDx=0;exitDy=0;" edge="1" parent="1" source="ysVdarNlDVqx9SCfsDqO-24" target="ysVdarNlDVqx9SCfsDqO-28">
          <mxGeometry width="50" height="50" relative="1" as="geometry">
            <mxPoint x="420" y="660" as="sourcePoint" />
            <mxPoint x="470" y="610" as="targetPoint" />
          </mxGeometry>
        </mxCell>
        <mxCell id="ysVdarNlDVqx9SCfsDqO-30" value="b=c;" style="whiteSpace=wrap;html=1;" vertex="1" parent="1">
          <mxGeometry x="290" y="970" width="60" height="30" as="geometry" />
        </mxCell>
        <mxCell id="ysVdarNlDVqx9SCfsDqO-31" value="" style="endArrow=classic;html=1;rounded=0;entryX=0.5;entryY=0;entryDx=0;entryDy=0;exitX=0;exitY=0.5;exitDx=0;exitDy=0;" edge="1" parent="1" source="ysVdarNlDVqx9SCfsDqO-28" target="ysVdarNlDVqx9SCfsDqO-30">
          <mxGeometry width="50" height="50" relative="1" as="geometry">
            <mxPoint x="420" y="660" as="sourcePoint" />
            <mxPoint x="470" y="610" as="targetPoint" />
            <Array as="points">
              <mxPoint x="320" y="935" />
            </Array>
          </mxGeometry>
        </mxCell>
        <mxCell id="ysVdarNlDVqx9SCfsDqO-32" value="if fB&amp;lt;0" style="rhombus;whiteSpace=wrap;html=1;" vertex="1" parent="1">
          <mxGeometry x="440" y="960" width="90" height="50" as="geometry" />
        </mxCell>
        <mxCell id="ysVdarNlDVqx9SCfsDqO-33" value="" style="endArrow=classic;html=1;rounded=0;entryX=0.5;entryY=0;entryDx=0;entryDy=0;exitX=1;exitY=0.5;exitDx=0;exitDy=0;" edge="1" parent="1" source="ysVdarNlDVqx9SCfsDqO-28" target="ysVdarNlDVqx9SCfsDqO-32">
          <mxGeometry width="50" height="50" relative="1" as="geometry">
            <mxPoint x="420" y="660" as="sourcePoint" />
            <mxPoint x="470" y="610" as="targetPoint" />
            <Array as="points">
              <mxPoint x="485" y="935" />
            </Array>
          </mxGeometry>
        </mxCell>
        <mxCell id="ysVdarNlDVqx9SCfsDqO-34" value="{" style="text;html=1;align=center;verticalAlign=middle;resizable=0;points=[];autosize=1;strokeColor=none;fillColor=none;" vertex="1" parent="1">
          <mxGeometry x="365" y="888" width="30" height="30" as="geometry" />
        </mxCell>
        <mxCell id="ysVdarNlDVqx9SCfsDqO-35" value="}" style="text;html=1;align=center;verticalAlign=middle;resizable=0;points=[];autosize=1;strokeColor=none;fillColor=none;" vertex="1" parent="1">
          <mxGeometry x="320" y="940" width="30" height="30" as="geometry" />
        </mxCell>
        <mxCell id="ysVdarNlDVqx9SCfsDqO-36" value="a=c;" style="whiteSpace=wrap;html=1;" vertex="1" parent="1">
          <mxGeometry x="365" y="1010" width="70" height="30" as="geometry" />
        </mxCell>
        <mxCell id="ysVdarNlDVqx9SCfsDqO-37" value="" style="endArrow=classic;html=1;rounded=0;entryX=0.5;entryY=0;entryDx=0;entryDy=0;exitX=0;exitY=0.5;exitDx=0;exitDy=0;" edge="1" parent="1" source="ysVdarNlDVqx9SCfsDqO-32" target="ysVdarNlDVqx9SCfsDqO-36">
          <mxGeometry width="50" height="50" relative="1" as="geometry">
            <mxPoint x="420" y="660" as="sourcePoint" />
            <mxPoint x="470" y="610" as="targetPoint" />
            <Array as="points">
              <mxPoint x="400" y="985" />
            </Array>
          </mxGeometry>
        </mxCell>
        <mxCell id="ysVdarNlDVqx9SCfsDqO-38" value="{" style="text;html=1;align=center;verticalAlign=middle;resizable=0;points=[];autosize=1;strokeColor=none;fillColor=none;" vertex="1" parent="1">
          <mxGeometry x="450" y="940" width="30" height="30" as="geometry" />
        </mxCell>
        <mxCell id="ysVdarNlDVqx9SCfsDqO-39" value="}" style="text;html=1;align=center;verticalAlign=middle;resizable=0;points=[];autosize=1;strokeColor=none;fillColor=none;" vertex="1" parent="1">
          <mxGeometry x="399" y="980" width="30" height="30" as="geometry" />
        </mxCell>
        <mxCell id="ysVdarNlDVqx9SCfsDqO-40" value="да" style="text;html=1;align=center;verticalAlign=middle;resizable=0;points=[];autosize=1;strokeColor=none;fillColor=none;" vertex="1" parent="1">
          <mxGeometry x="310" y="908" width="40" height="30" as="geometry" />
        </mxCell>
        <mxCell id="ysVdarNlDVqx9SCfsDqO-41" value="нет" style="text;html=1;align=center;verticalAlign=middle;resizable=0;points=[];autosize=1;strokeColor=none;fillColor=none;" vertex="1" parent="1">
          <mxGeometry x="450" y="908" width="40" height="30" as="geometry" />
        </mxCell>
        <mxCell id="ysVdarNlDVqx9SCfsDqO-42" value="cout &amp;lt;&amp;lt; &quot;ошибка&quot; &amp;lt;&amp;lt; endl;" style="shape=parallelogram;perimeter=parallelogramPerimeter;whiteSpace=wrap;html=1;fixedSize=1;" vertex="1" parent="1">
          <mxGeometry x="530" y="1010" width="170" height="30" as="geometry" />
        </mxCell>
        <mxCell id="ysVdarNlDVqx9SCfsDqO-43" value="" style="endArrow=classic;html=1;rounded=0;entryX=0.5;entryY=0;entryDx=0;entryDy=0;exitX=1;exitY=0.5;exitDx=0;exitDy=0;" edge="1" parent="1" source="ysVdarNlDVqx9SCfsDqO-32" target="ysVdarNlDVqx9SCfsDqO-42">
          <mxGeometry width="50" height="50" relative="1" as="geometry">
            <mxPoint x="420" y="790" as="sourcePoint" />
            <mxPoint x="470" y="740" as="targetPoint" />
            <Array as="points">
              <mxPoint x="615" y="985" />
            </Array>
          </mxGeometry>
        </mxCell>
        <mxCell id="ysVdarNlDVqx9SCfsDqO-44" value="cout &lt;&lt; &quot;Корень по методу половинного деления: &quot; &lt;&lt; a &lt;&lt; &quot;; &quot; &lt;&lt; b &lt;&lt; endl;" style="shape=parallelogram;perimeter=parallelogramPerimeter;whiteSpace=wrap;html=1;fixedSize=1;fillColor=default;" vertex="1" parent="1">
          <mxGeometry x="200" y="1108" width="450" height="40" as="geometry" />
        </mxCell>
        <mxCell id="ysVdarNlDVqx9SCfsDqO-45" value="return 0:" style="ellipse;whiteSpace=wrap;html=1;" vertex="1" parent="1">
          <mxGeometry x="355" y="1178" width="90" height="50" as="geometry" />
        </mxCell>
        <mxCell id="ysVdarNlDVqx9SCfsDqO-46" value="" style="endArrow=classic;html=1;rounded=0;entryX=0.5;entryY=0;entryDx=0;entryDy=0;exitX=0.442;exitY=0.944;exitDx=0;exitDy=0;exitPerimeter=0;" edge="1" parent="1" source="ysVdarNlDVqx9SCfsDqO-44" target="ysVdarNlDVqx9SCfsDqO-45">
          <mxGeometry width="50" height="50" relative="1" as="geometry">
            <mxPoint x="420" y="910" as="sourcePoint" />
            <mxPoint x="470" y="860" as="targetPoint" />
          </mxGeometry>
        </mxCell>
        <mxCell id="ysVdarNlDVqx9SCfsDqO-47" value="}" style="text;html=1;align=center;verticalAlign=middle;resizable=0;points=[];autosize=1;strokeColor=none;fillColor=none;" vertex="1" parent="1">
          <mxGeometry x="405" y="1148" width="30" height="30" as="geometry" />
        </mxCell>
        <mxCell id="ysVdarNlDVqx9SCfsDqO-48" value="да" style="text;html=1;align=center;verticalAlign=middle;resizable=0;points=[];autosize=1;strokeColor=none;fillColor=none;" vertex="1" parent="1">
          <mxGeometry x="400" y="958" width="40" height="30" as="geometry" />
        </mxCell>
        <mxCell id="ysVdarNlDVqx9SCfsDqO-49" value="нет" style="text;html=1;align=center;verticalAlign=middle;resizable=0;points=[];autosize=1;strokeColor=none;fillColor=none;" vertex="1" parent="1">
          <mxGeometry x="550" y="958" width="40" height="30" as="geometry" />
        </mxCell>
        <mxCell id="ysVdarNlDVqx9SCfsDqO-50" value="" style="endArrow=classic;html=1;rounded=0;exitX=1;exitY=0.5;exitDx=0;exitDy=0;entryX=0.556;entryY=-0.025;entryDx=0;entryDy=0;entryPerimeter=0;" edge="1" parent="1" source="ysVdarNlDVqx9SCfsDqO-17" target="ysVdarNlDVqx9SCfsDqO-44">
          <mxGeometry width="50" height="50" relative="1" as="geometry">
            <mxPoint x="620" y="760" as="sourcePoint" />
            <mxPoint x="590" y="860" as="targetPoint" />
            <Array as="points">
              <mxPoint x="760" y="560" />
              <mxPoint x="760" y="1080" />
              <mxPoint x="450" y="1080" />
            </Array>
          </mxGeometry>
        </mxCell>
        <mxCell id="ysVdarNlDVqx9SCfsDqO-51" value="" style="endArrow=none;html=1;rounded=0;entryX=0.412;entryY=1;entryDx=0;entryDy=0;entryPerimeter=0;exitX=0.5;exitY=1;exitDx=0;exitDy=0;" edge="1" parent="1" source="ysVdarNlDVqx9SCfsDqO-36" target="ysVdarNlDVqx9SCfsDqO-42">
          <mxGeometry width="50" height="50" relative="1" as="geometry">
            <mxPoint x="380" y="910" as="sourcePoint" />
            <mxPoint x="430" y="860" as="targetPoint" />
            <Array as="points">
              <mxPoint x="400" y="1060" />
              <mxPoint x="500" y="1060" />
              <mxPoint x="600" y="1060" />
            </Array>
          </mxGeometry>
        </mxCell>
        <mxCell id="ysVdarNlDVqx9SCfsDqO-52" value="" style="endArrow=none;html=1;rounded=0;exitX=0.5;exitY=1;exitDx=0;exitDy=0;" edge="1" parent="1" source="ysVdarNlDVqx9SCfsDqO-30">
          <mxGeometry width="50" height="50" relative="1" as="geometry">
            <mxPoint x="380" y="910" as="sourcePoint" />
            <mxPoint x="440" y="1060" as="targetPoint" />
            <Array as="points">
              <mxPoint x="320" y="1070" />
              <mxPoint x="440" y="1070" />
            </Array>
          </mxGeometry>
        </mxCell>
        <mxCell id="ysVdarNlDVqx9SCfsDqO-53" value="" style="endArrow=classic;html=1;rounded=0;entryX=1.009;entryY=0.592;entryDx=0;entryDy=0;entryPerimeter=0;" edge="1" parent="1" target="ysVdarNlDVqx9SCfsDqO-19">
          <mxGeometry width="50" height="50" relative="1" as="geometry">
            <mxPoint x="360" y="1070" as="sourcePoint" />
            <mxPoint x="430" y="860" as="targetPoint" />
            <Array as="points">
              <mxPoint x="360" y="1090" />
              <mxPoint x="120" y="1090" />
              <mxPoint x="120" y="508" />
            </Array>
          </mxGeometry>
        </mxCell>
      </root>
    </mxGraphModel>
  </diagram>
</mxfile>
